<?xml version="1.0" encoding="utf-8"?>
<!-- Generator: Adobe Illustrator 23.0.4, SVG Export Plug-In . SVG Version: 6.00 Build 0)  -->
<svg version="1.1" id="Layer_1" xmlns="http://www.w3.org/2000/svg" xmlns:xlink="http://www.w3.org/1999/xlink" x="0px" y="0px"
	 viewBox="0 0 527.1 310.8" style="enable-background:new 0 0 527.1 310.8;" xml:space="preserve">
<style type="text/css">
	.st0{fill:#FFFFFF;}
</style>
<g>
	<g>
		<path class="st0" d="M370.7,247.7c-0.8,2-1.4,3.8-2,5.6c-4.2,12.3-12.5,20.9-24.2,26.3c-5.9,2.7-12.2,4.6-18.6,5.9
			c-4.2,0.8-8.4,1.8-12.5,3.3c-1,0.4-2.1,0.6-3.2,0.6c-3.5,0.1-7,0-10.4,0c-0.6,0-1.2-0.1-1.8-0.3c-4.6-2-9.6-2.9-14.5-3.9
			c-9.1-1.8-18-4.4-26.5-8.2c-11.7-5.2-21.8-12.6-30.1-22.3c-2.9-3.4-6.4-5.8-10.6-7.1c-2.1-0.6-4.2-0.9-6.4-0.9
			c-7.9,0-15.8,0-23.7,0c-19.4,0-38.9,0.1-58.3,0.1c-15.6,0.1-31.1,0.2-46.7,0.3c-6.5,0-12.7-1.1-18.8-3.5
			c-8.2-3.1-14.8-8.4-20.1-15.4c-2.7-3.6-5-7.4-6.9-11.4c-2.6-5.4-5.8-10.6-9.4-15.4c-2.1-2.8-4.2-5.6-6.3-8.3
			c-0.8-1-1.1-2.1-1.1-3.4c0-6.9,0-13.8,0-20.7c0-1.2,0.4-2.2,1.3-3.1c16.4-15.4,29.5-33.4,40.4-53c2.1-3.8,4.1-7.6,6.1-11.4
			c5.7-11.2,12.9-21.3,21.3-30.7c4.4-4.9,8.8-9.8,13.5-14.3c9.9-9.7,21.8-15.8,35.6-18.2c5.8-1,11.6-1.3,17.5-0.9
			c2.4,0.2,4.9,0,7.3-0.3c2-0.2,3.8-1.2,5.2-2.7c1.3-1.3,2.5-2.8,3.7-4.3c3.6-4.7,7.7-8.6,13.2-11c7.4-3.3,14.6-3,21.5,1.2
			c3.1,1.8,5.9,4.1,8.2,6.9c3.5,4.1,7.1,8.2,10.5,12.3c2.2,2.7,3.4,5.8,3.9,9.2c0.3,2.1,0.6,4.1,1,6.3c2.1-0.6,3.9-1.5,5.5-2.7
			c10-7.3,20.5-13.6,31.7-18.8c11.1-5.1,22.6-8.9,34.7-11.1c6.2-1.1,12.5-1.7,18.8-1.9c15.7-0.4,30.9,2,45.8,6.8
			c2.9,0.9,5.7,1,8.3-0.4c1.9-0.9,3.7-2,5.4-3.2c4.7-3.4,9.8-5.8,15.6-6.9c12-2.2,23.7,2.9,30.2,13.3c3.4,5.3,5.2,11.2,5.6,17.5
			c0.4,6.1,0.7,12.1,1,18.2c0.5,8,2.2,15.8,4.8,23.4c4,11.9,8,23.8,11.8,35.8c1.5,4.8,2.7,9.8,3.9,14.7c1.5,6.2,4.5,11.3,9.5,15.3
			c7.8,6.2,15.5,12.6,23.2,19c6.9,5.8,13.4,12.1,18.9,19.2c4.5,5.9,8.1,12.4,9.9,19.7c6,24.8-8.4,52.2-35.2,58.6
			c-8.6,2.1-17.4,2.6-26.3,2c-7.5-0.5-14.9-1.9-22-4.5c-8.1-2.9-15.4-7.2-21.9-12.7c-3.9-3.3-8.3-5.8-13.2-7.4
			c-4.5-1.4-9.2-2-13.9-1.9C377.4,247.3,374,247.5,370.7,247.7z M384.9,226.4c0-0.5,0-0.7-0.1-0.9c-1-4.6-1.7-9.3-2-14.1
			c-0.7-10.6,0.4-21.1,4.1-31.1c6.9-18.4,19.7-30.2,39.1-34.6c1.8-0.4,3.6-0.7,5.5-1c0.6-3.6,0.6-7,0-10.5
			c-1.1-6.5-2.8-12.9-4.9-19.2c-8.9-26.5-25.3-46.8-50-60.3c-15.9-8.7-32.8-13.8-50.9-14.4c-10.2-0.3-20.3,1-30.1,3.7
			c-16,4.3-30.6,11.7-44.3,21.1c-1.3,0.9-2.4,2.3-3.4,3.6c-0.6,0.8-0.8,2-0.7,3c0,2.5,0.3,4.9,0.5,7.4c0.3,4.3,0.5,8.7,0.8,13.1
			c0.5,7.7,1,15.3,1.6,23c0.3,4.5,0.6,8.9,1.1,13.4c0.7,6.9,1.5,13.7,2.2,20.6c0.7,6.6,3.6,12,8.9,16c3.5,2.6,7.4,4.4,11.6,5.4
			c7.6,1.7,15.2,3.4,22.8,5c6.3,1.3,12.5,2.6,18.8,3.6c6,1,12,2,17.7,4c15,5.2,26.2,14.8,32.9,29.3c1.9,4.1,3.3,8.3,4.5,12.6
			c0.2,0.8,0.5,1.5,0.8,2.3C375.9,226.9,380.3,226.7,384.9,226.4z M222.9,74.9c-0.6,0.1-1,0.1-1.3,0.2c-5.6,1.3-11.3,2.7-16.9,4
			c-6.5,1.5-13,2.6-19.7,2.2c-5.2-0.4-9.7-2.3-13.2-6.3c-2.8-3.2-5.1-6.8-7.1-10.5c-0.8-1.5-1.6-3-2.4-4.5c-0.4-0.8-1-1.4-1.9-1.5
			c-2.6-0.4-5.2-0.8-7.9-1c-10.6-0.7-20.3,2-29.4,7.4c-6.7,4.1-12.4,9.4-17.6,15.2c-14.2,16-25.4,34-34.3,53.4
			c-8.6,18.8-14.7,38.4-19.4,58.4c-1.5,6.6-0.6,13,2.7,18.9c5.9,10.4,15,16,26.9,16.1c19,0.2,38,0,57-0.1c12.6,0,25.3-0.1,37.9-0.1
			c12.3,0,24.6,0,36.9,0c0.6,0,1.2,0,1.9,0C217.8,176.1,220.4,125.6,222.9,74.9z"/>
		<path class="st0" d="M84.2,152.2c0.2-9.3,1.6-17.2,5.4-24.7c1.2-2.4,2.7-4.6,4.5-6.5c5-5.4,11-7,18.1-4.8
			c5.6,1.7,10.1,5.1,14.1,9.2c7.4,7.5,11.7,16.5,13.2,26.9c0.6,4.3,0.4,8.6-0.8,12.8c-2.1,7.5-6.6,12.9-13.6,16.2
			c-6,2.9-12.3,4.1-19,3.3c-6.5-0.8-11.8-3.9-15.6-9.3c-3.2-4.5-4.9-9.5-5.6-14.9C84.6,157.4,84.4,154.3,84.2,152.2z"/>
	</g>
</g>
</svg>
