<svg xmlns="http://www.w3.org/2000/svg" viewBox="0 0 77.15 42.12"><defs><style>.cls-1{fill:#cd2027;}</style></defs><title>csaLogoThankYou</title><g id="Layer_3" data-name="Layer 3"><path class="cls-1" d="M81.76,52.59a19.89,19.89,0,0,0-2.3-1.21c0-.06,0-.13,0-.19A20.06,20.06,0,0,0,75.93,39.8c.85-3.73.09-7.09-2-8.56a5.18,5.18,0,0,0-3.54-.86,5,5,0,0,0-3.22,2.23A20,20,0,0,0,59.29,31a23.34,23.34,0,0,0-14.42,5.48l-.52-.16a5.66,5.66,0,0,0-3.62-5.64,5.06,5.06,0,0,0-5,1.57,5.48,5.48,0,0,0-1,1.57,11.39,11.39,0,0,0-4.93.11c-4.91,1.18-9.2,6-12.8,14.2a13.52,13.52,0,0,1-2.12,2.64c-1.13,1.08-1.71,1.24-2.27,2.29a5.16,5.16,0,0,0,.14,5.33,5.48,5.48,0,0,0,1.2,1.15,6.42,6.42,0,0,0,1.17,2.92c1.05,1.5,2.35,3.37,5.56,3.77h.22c7.73-.18,15.36-.14,22.79-.08a7.07,7.07,0,0,0,.43.76C48.33,73.3,61.62,74.39,65.44,69a7.09,7.09,0,0,0,1.15-2.8l4.25-.06a11.05,11.05,0,0,0,4.71,3.19c.64.25,7.21,2.68,11.16-1.12A8.08,8.08,0,0,0,89,63.56C89.76,57.44,82.73,53.16,81.76,52.59Zm-5.32-2a6.33,6.33,0,0,0-2.48.32,7.64,7.64,0,0,0-3.84,3.33,10.57,10.57,0,0,0-.93,9l-2.52,0a8.52,8.52,0,0,0-.57-2.12A9.17,9.17,0,0,0,62,56.74c-1-.55-1.48-.53-5.47-1.3C51,54.35,50.4,54,49.93,53.62c-1.65-1.45-2-3.67-2.38-6a36.58,36.58,0,0,1-.19-5.24c0-1.59,0-3,0-4A20.47,20.47,0,0,1,59.29,34,17.19,17.19,0,0,1,76.44,50.6ZM33.62,63.12c-4.18,0-8.42,0-12.68.13-1.72-.24-2.37-1.07-3.36-2.49-.65-.93-1.39-2,.58-7.42C22.57,41.1,27.3,37.62,30.49,36.86a8.42,8.42,0,0,1,3.9,0,4.39,4.39,0,0,0,.88,2.08c1.84,2.33,5.91,2.29,7.91.2.3.11.61.2.91.28A147.55,147.55,0,0,0,42.79,58c0,2.32,0,4,.16,5.21C39.87,63.14,36.77,63.12,33.62,63.12Z" transform="translate(-11.93 -30.34)"/><path class="cls-1" d="M26.31,45.93a2.68,2.68,0,0,0-1.82.08c-2.65,1.24-3.42,8.25-.3,10.05a4.78,4.78,0,0,0,5.71-1.3C32,52,29.35,46.7,26.31,45.93Z" transform="translate(-11.93 -30.34)"/></g></svg>