<?xml version="1.0" encoding="utf-8"?>
<!-- Generator: Adobe Illustrator 23.0.4, SVG Export Plug-In . SVG Version: 6.00 Build 0)  -->
<svg version="1.1" baseProfile="tiny" id="Layer_1" xmlns="http://www.w3.org/2000/svg" xmlns:xlink="http://www.w3.org/1999/xlink"
	 x="0px" y="0px" viewBox="0 0 527.08 310.84" xml:space="preserve">
<g>
	<g>
		<path fill="#CF252A" d="M370.66,247.71c-0.75,2.04-1.43,3.78-2.03,5.55c-4.19,12.31-12.45,20.86-24.16,26.26
			c-5.94,2.74-12.16,4.58-18.56,5.85c-4.22,0.83-8.39,1.83-12.46,3.28c-1.02,0.36-2.15,0.56-3.23,0.59
			c-3.48,0.07-6.96,0.04-10.43,0.02c-0.6,0-1.25-0.06-1.78-0.29c-4.64-2.03-9.57-2.94-14.49-3.93c-9.1-1.84-17.97-4.42-26.46-8.23
			c-11.66-5.23-21.75-12.56-30.08-22.28c-2.87-3.35-6.35-5.76-10.59-7.07c-2.08-0.64-4.19-0.91-6.36-0.9
			c-7.9,0.01-15.79-0.04-23.69-0.03c-19.44,0.04-38.87,0.07-58.31,0.15c-15.57,0.06-31.14,0.21-46.71,0.28
			c-6.46,0.03-12.73-1.15-18.77-3.46c-8.21-3.15-14.84-8.39-20.07-15.42c-2.67-3.6-5.02-7.4-6.94-11.45
			c-2.59-5.45-5.75-10.56-9.39-15.37c-2.1-2.77-4.18-5.56-6.3-8.31c-0.78-1.01-1.15-2.07-1.15-3.36c0.03-6.9,0.03-13.8,0-20.71
			c-0.01-1.25,0.37-2.21,1.28-3.07c16.36-15.45,29.5-33.38,40.42-52.98c2.09-3.76,4.12-7.55,6.09-11.38
			c5.74-11.17,12.94-21.32,21.26-30.68c4.36-4.9,8.82-9.75,13.52-14.33c9.95-9.7,21.85-15.75,35.56-18.15
			c5.78-1.01,11.61-1.31,17.48-0.9c2.41,0.17,4.86-0.01,7.27-0.26c2.02-0.21,3.8-1.21,5.21-2.67c1.3-1.35,2.52-2.78,3.66-4.27
			c3.57-4.68,7.74-8.62,13.19-11.04c7.37-3.28,14.56-2.96,21.54,1.16c3.12,1.84,5.86,4.13,8.22,6.87c3.53,4.1,7.05,8.21,10.54,12.34
			c2.24,2.65,3.36,5.79,3.85,9.19c0.3,2.07,0.63,4.13,0.96,6.28c2.12-0.59,3.85-1.53,5.46-2.71c9.97-7.26,20.46-13.64,31.67-18.82
			c11.11-5.14,22.65-8.94,34.71-11.07c6.2-1.1,12.46-1.7,18.76-1.86c15.66-0.41,30.89,2.01,45.76,6.82
			c2.89,0.94,5.66,0.95,8.34-0.39c1.86-0.93,3.71-1.97,5.39-3.19c4.71-3.43,9.82-5.84,15.58-6.9c11.95-2.2,23.7,2.92,30.2,13.3
			c3.35,5.34,5.17,11.21,5.61,17.47c0.43,6.06,0.66,12.13,1.05,18.18c0.52,8.03,2.19,15.82,4.76,23.44
			c4.02,11.91,8.01,23.83,11.83,35.81c1.54,4.83,2.67,9.79,3.87,14.71c1.5,6.16,4.53,11.28,9.53,15.28
			c7.8,6.24,15.55,12.56,23.21,18.98c6.91,5.79,13.35,12.07,18.85,19.25c4.54,5.93,8.08,12.36,9.86,19.68
			c6.02,24.77-8.41,52.25-35.23,58.64c-8.65,2.06-17.44,2.56-26.31,1.96c-7.53-0.51-14.86-1.93-21.97-4.49
			c-8.08-2.91-15.36-7.18-21.94-12.69c-3.94-3.29-8.33-5.77-13.22-7.35c-4.51-1.45-9.16-1.97-13.88-1.85
			C377.35,247.29,374.05,247.53,370.66,247.71z M384.87,226.41c-0.04-0.46-0.04-0.68-0.09-0.89c-1.04-4.64-1.72-9.32-2.04-14.07
			c-0.72-10.65,0.37-21.07,4.14-31.1c6.91-18.4,19.74-30.2,39.06-34.62c1.81-0.41,3.65-0.7,5.5-1.04c0.57-3.55,0.62-7.01,0.02-10.46
			c-1.15-6.53-2.77-12.94-4.88-19.22c-8.9-26.53-25.34-46.84-49.98-60.31c-15.87-8.68-32.76-13.84-50.93-14.41
			c-10.22-0.32-20.26,0.99-30.12,3.65c-16.05,4.33-30.64,11.72-44.26,21.14c-1.33,0.92-2.44,2.26-3.36,3.6
			c-0.55,0.79-0.75,1.96-0.73,2.96c0.04,2.48,0.31,4.95,0.47,7.43c0.27,4.35,0.49,8.71,0.77,13.06c0.5,7.65,1.03,15.31,1.58,22.96
			c0.32,4.46,0.63,8.92,1.08,13.37c0.69,6.86,1.5,13.71,2.25,20.57c0.72,6.6,3.62,11.97,8.91,16.01c3.47,2.65,7.35,4.45,11.61,5.38
			c7.59,1.67,15.17,3.39,22.78,4.97c6.26,1.3,12.53,2.55,18.84,3.57c6,0.97,11.95,2.04,17.71,4.03
			c15.03,5.2,26.16,14.79,32.93,29.29c1.9,4.06,3.26,8.31,4.5,12.61c0.22,0.77,0.51,1.53,0.78,2.34
			C375.94,226.94,380.34,226.68,384.87,226.41z M222.95,74.92c-0.64,0.1-0.97,0.13-1.28,0.2c-5.63,1.32-11.26,2.65-16.89,3.98
			c-6.46,1.53-12.98,2.63-19.66,2.17c-5.23-0.36-9.71-2.29-13.24-6.28c-2.84-3.2-5.15-6.75-7.15-10.51c-0.8-1.51-1.6-3.03-2.39-4.54
			c-0.4-0.77-0.96-1.39-1.85-1.51c-2.62-0.36-5.24-0.81-7.88-0.98c-10.56-0.67-20.32,1.95-29.37,7.4
			c-6.74,4.06-12.39,9.36-17.58,15.22c-14.21,16.03-25.44,33.96-34.33,53.41c-8.59,18.78-14.74,38.37-19.4,58.45
			c-1.53,6.61-0.64,13.03,2.69,18.91c5.89,10.41,15.03,15.98,26.91,16.13c18.99,0.24,37.98-0.04,56.97-0.1
			c12.64-0.04,25.29-0.1,37.93-0.13c12.31-0.03,24.62-0.02,36.94-0.03c0.59,0,1.18,0,1.85,0
			C217.8,176.06,220.37,125.59,222.95,74.92z"/>
		<path fill="#CF292F" d="M84.23,152.25c0.19-9.26,1.62-17.23,5.39-24.67c1.2-2.38,2.7-4.56,4.51-6.51c5-5.4,11.03-6.99,18.06-4.83
			c5.59,1.72,10.08,5.14,14.11,9.24c7.35,7.49,11.71,16.49,13.25,26.85c0.64,4.3,0.41,8.58-0.77,12.8
			c-2.08,7.46-6.63,12.85-13.59,16.2c-6,2.89-12.31,4.14-18.96,3.29c-6.53-0.83-11.78-3.85-15.59-9.26
			c-3.15-4.47-4.91-9.49-5.63-14.87C84.58,157.44,84.42,154.34,84.23,152.25z"/>
	</g>
</g>
</svg>
