<?xml version="1.0" encoding="utf-8"?>
<!-- Generator: Adobe Illustrator 23.0.4, SVG Export Plug-In . SVG Version: 6.00 Build 0)  -->
<svg version="1.1" baseProfile="tiny" id="Layer_1" xmlns="http://www.w3.org/2000/svg" xmlns:xlink="http://www.w3.org/1999/xlink"
	 x="0px" y="0px" viewBox="0 0 71.79 82.84" xml:space="preserve">
<g>
	<path fill="#CE2127" d="M6.76,0c0.19,1.11,0.55,2.22,0.56,3.33c0.04,11.36,0.03,22.71,0.03,34.36c6.15,0,12.18,0,18.58,0
		c0,4.32,0.11,8.37-0.04,12.41c-0.08,2.25,0.54,3.16,2.92,3.04c3.55-0.18,7.13-0.05,10.95-0.05c0,7.56,0,14.98,0,22.75
		c10.85,0,21.44,0,32.04,0c0,2.33,0,4.67,0,7c-13.49,0-26.97,0-40.7,0c0-7.31,0-14.35,0-21.41c-1.83,0-3.41,0-5.26,0
		c0,7.4,0,14.63,0,21.81c-8.82,0-17.36,0-25.79,0c0-10.37,0-20.55,0-30.92c6.53,0,12.88,0,19.36,0c0-2.27,0-4.36,0-6.74
		c-6.55,0-12.97,0-19.6,0c0-1.24-0.01-2.2,0-3.15c0.16-9,0.34-18.01,0.48-27.01c0.08-4.95,0.09-9.9,0.14-14.85
		C1.75,0.38,3.1,0.19,4.44,0C5.21,0,5.99,0,6.76,0z M7.47,75.82c3.53,0,7.14,0.07,10.74-0.08c0.47-0.02,1.24-1.17,1.26-1.82
		c0.12-4.13,0.06-8.27,0.06-12.53c-4.15,0-8.05,0-12.07,0C7.47,66.14,7.47,70.76,7.47,75.82z"/>
	<path fill="#DA585C" d="M4.44,0C3.1,0.19,1.75,0.38,0.41,0.57c0,0-0.09,0.12-0.09,0.12S0.18,0.63,0.18,0.63
		C0.24,0.42,0.31,0.21,0.37,0C1.73,0,3.08,0,4.44,0z"/>
	<path fill="#F2C6C8" d="M0.37,0C0.31,0.21,0.24,0.42,0.18,0.63C0.05,0.42-0.08,0.21-0.21,0C-0.01,0,0.18,0,0.37,0z"/>
</g>
</svg>
