<?xml version="1.0" encoding="utf-8"?>
<!-- Generator: Adobe Illustrator 23.0.4, SVG Export Plug-In . SVG Version: 6.00 Build 0)  -->
<svg version="1.1" baseProfile="tiny" id="Layer_1" xmlns="http://www.w3.org/2000/svg" xmlns:xlink="http://www.w3.org/1999/xlink"
	 x="0px" y="0px" viewBox="0 0 108 123.83" xml:space="preserve">
<g>
	<path fill="#CE2127" d="M108,124.82c-13.21,0-26.41,0-40.02,0c0-10.75,0-21.28,0-32.05c-2.78,0-5.16,0-7.91,0
		c0,10.31,0,20.56,0,31.06c-20.19,0-40.01,0-60.06,0c0-3.32,0-6.59,0-10.27c15.79,0,31.55,0,47.71,0c0-11.5,0-22.61,0-34.13
		c6.02,0,11.65-0.11,17.27,0.05c2.85,0.08,3.85-0.96,3.79-3.8c-0.15-6.21-0.05-12.43-0.05-18.95c9.31,0,18.27,0,27.93,0
		c0-1.81,0-3.33,0-4.85c0-15.55-0.02-31.1,0.03-46.66c0.01-1.49,0.49-2.98,0.75-4.46c2.65-0.25,5.3-0.51,7.94-0.76
		c0.58,0,1.16,0,1.75,0c0,20.92-0.02,41.84,0.04,62.76c0,1.48,0.54,2.97,0.84,4.45c0,0.29,0,0.58,0,0.87c-9.81,0-19.63,0-29.47,0
		c0,3.86,0,6.99,0,10.47c8.3,0,16.39-0.05,24.49,0.04c1.66,0.02,3.32,0.54,4.98,0.83c0,1.75,0,3.49,0,5.24
		c-0.29,0.75-0.83,1.5-0.83,2.26c-0.06,8.97-0.06,17.94,0,26.91c0,0.75,0.54,1.51,0.83,2.26C108,119,108,121.91,108,124.82z
		 M96.39,113.35c0-7.43,0-14.44,0-21.43c-6.12,0-11.98,0-17.81,0c0,7.28,0,14.3,0,21.43C84.6,113.35,90.35,113.35,96.39,113.35z"/>
	<path fill="#E68F92" d="M108,67.21c-0.29-1.48-0.83-2.96-0.84-4.45c-0.06-20.92-0.04-41.84-0.04-62.76
		c0.29,1.16,0.83,2.33,0.84,3.49C108.01,24.73,108,45.97,108,67.21z"/>
	<path fill="#E68F92" d="M108,116.09c-0.29-0.75-0.83-1.5-0.83-2.26c-0.06-8.97-0.06-17.94,0-26.91c0-0.75,0.54-1.51,0.83-2.26
		C108,95.14,108,105.61,108,116.09z"/>
	<path fill="#E68F92" d="M105.38,0c-2.65,0.25-5.3,0.51-7.94,0.76c0.06-0.25,0.09-0.51,0.09-0.76C100.14,0,102.76,0,105.38,0z"/>
</g>
</svg>
