<?xml version="1.0" encoding="utf-8"?>
<!-- Generator: Adobe Illustrator 23.0.4, SVG Export Plug-In . SVG Version: 6.00 Build 0)  -->
<svg version="1.1" baseProfile="tiny" id="Layer_1" xmlns="http://www.w3.org/2000/svg" xmlns:xlink="http://www.w3.org/1999/xlink"
	 x="0px" y="0px" viewBox="0 0 72 82.55" xml:space="preserve">
<g>
	<path fill="#CE2127" d="M72,83.21c-8.8,0-17.61,0-26.68,0c0-7.17,0-14.19,0-21.37c-1.85,0-3.44,0-5.28,0c0,6.87,0,13.71,0,20.71
		c-13.46,0-26.67,0-40.04,0c0-2.22,0-4.4,0-6.84c10.53,0,21.03,0,31.81,0c0-7.67,0-15.07,0-22.76c4.01,0,7.76-0.07,11.51,0.03
		c1.9,0.05,2.57-0.64,2.52-2.53c-0.1-4.14-0.03-8.29-0.03-12.63c6.21,0,12.18,0,18.62,0c0-1.21,0-2.22,0-3.23
		c0-10.37-0.01-20.74,0.02-31.1c0-0.99,0.33-1.98,0.5-2.98c1.77-0.17,3.53-0.34,5.3-0.51c0.39,0,0.78,0,1.16,0
		c0,13.95-0.01,27.89,0.03,41.84c0,0.99,0.36,1.98,0.56,2.97c0,0.19,0,0.39,0,0.58c-6.54,0-13.09,0-19.65,0c0,2.57,0,4.66,0,6.98
		c5.53,0,10.93-0.03,16.33,0.03c1.11,0.01,2.21,0.36,3.32,0.56c0,1.16,0,2.33,0,3.49c-0.19,0.5-0.55,1-0.55,1.51
		c-0.04,5.98-0.04,11.96,0,17.94c0,0.5,0.36,1,0.55,1.51C72,79.33,72,81.27,72,83.21z M64.26,75.56c0-4.95,0-9.63,0-14.29
		c-4.08,0-7.99,0-11.87,0c0,4.86,0,9.53,0,14.29C56.4,75.56,60.23,75.56,64.26,75.56z"/>
	<path fill="#E68F92" d="M72,44.81c-0.19-0.99-0.55-1.98-0.56-2.97C71.41,27.89,71.42,13.95,71.42,0c0.19,0.78,0.56,1.55,0.56,2.33
		C72.01,16.49,72,30.65,72,44.81z"/>
	<path fill="#E68F92" d="M72,77.39c-0.19-0.5-0.55-1-0.55-1.51c-0.04-5.98-0.04-11.96,0-17.94c0-0.5,0.36-1,0.55-1.51
		C72,63.43,72,70.41,72,77.39z"/>
	<path fill="#E68F92" d="M70.25,0c-1.77,0.17-3.53,0.34-5.3,0.51C65,0.34,65.01,0.17,65.02,0C66.76,0,68.51,0,70.25,0z"/>
</g>
</svg>
