<?xml version="1.0" encoding="utf-8"?>
<!-- Generator: Adobe Illustrator 23.0.4, SVG Export Plug-In . SVG Version: 6.00 Build 0)  -->
<svg version="1.1" baseProfile="tiny" id="Layer_1" xmlns="http://www.w3.org/2000/svg" xmlns:xlink="http://www.w3.org/1999/xlink"
	 x="0px" y="0px" viewBox="0 0 107.99 123.68" xml:space="preserve">
<g>
	<path fill="#CE2127" d="M10.45-0.3c0.29,1.67,0.83,3.33,0.83,5c0.06,17.04,0.04,34.07,0.04,51.54c9.22,0,18.28,0,27.87,0
		c0,6.48,0.16,12.55-0.06,18.61c-0.13,3.37,0.81,4.74,4.38,4.56c5.33-0.27,10.69-0.07,16.43-0.07c0,11.34,0,22.47,0,34.13
		c16.28,0,32.17,0,48.05,0c0,3.5,0,7,0,10.5c-20.23,0-40.46,0-61.05,0c0-10.96,0-21.53,0-32.12c-2.75,0-5.12,0-7.89,0
		c0,11.1,0,21.94,0,32.71c-13.22,0-26.04,0-38.68,0c0-15.56,0-30.83,0-46.37c9.8,0,19.32,0,29.04,0c0-3.41,0-6.53,0-10.1
		c-9.83,0-19.45,0-29.4,0c0-1.86-0.02-3.29,0-4.72c0.24-13.51,0.5-27.01,0.72-40.52c0.12-7.42,0.14-14.85,0.2-22.27
		C2.93,0.28,4.95-0.01,6.96-0.3C8.12-0.3,9.29-0.3,10.45-0.3z M11.51,113.43c5.29,0,10.71,0.1,16.12-0.13
		c0.7-0.03,1.87-1.76,1.89-2.73c0.17-6.2,0.09-12.41,0.09-18.79c-6.23,0-12.07,0-18.1,0C11.51,98.91,11.51,105.84,11.51,113.43z"/>
	<path fill="#DA585C" d="M6.96-0.3C4.95-0.01,2.93,0.28,0.92,0.56c0,0-0.14,0.18-0.14,0.18s-0.21-0.1-0.21-0.1
		c0.1-0.32,0.19-0.63,0.29-0.95C2.9-0.3,4.93-0.3,6.96-0.3z"/>
	<path fill="#F2C6C8" d="M0.87-0.3c-0.1,0.32-0.19,0.63-0.29,0.95C0.38,0.33,0.19,0.02,0-0.3C0.29-0.3,0.58-0.3,0.87-0.3z"/>
</g>
</svg>
