<svg id="Layer_1" data-name="Layer 1" xmlns="http://www.w3.org/2000/svg" viewBox="0 0 14.09 7.69"><defs><style>.cls-1{fill:#fff;}.cls-2{fill:#231f20;}</style></defs><title>vectorLogo</title><polygon class="cls-1" points="4.57 0.96 3.02 1.01 2.02 1.92 0.95 3.76 0.47 5 0.83 5.77 1.35 6.22 11.88 6.31 12.06 3.49 11.31 1.44 9.73 0.51 7.83 0.46 6.3 1.3 6.01 1.59 5.2 1.44 4.91 0.85 4.57 0.96"/><path class="cls-2" d="M13.75,7.84c-.11-.06-.26-.15-.42-.22v0a3.71,3.71,0,0,0-.64-2.08,1.52,1.52,0,0,0-.37-1.57,1,1,0,0,0-.65-.15.86.86,0,0,0-.58.4A3.85,3.85,0,0,0,9.65,3.9,4.27,4.27,0,0,0,7,4.9l-.1,0a1,1,0,0,0-.66-1,.93.93,0,0,0-.92.29,1.19,1.19,0,0,0-.18.29,2,2,0,0,0-.9,0C3.37,4.65,2.58,5.52,1.92,7a2.67,2.67,0,0,1-.38.48c-.21.2-.31.23-.42.42a.94.94,0,0,0,0,1,.88.88,0,0,0,.22.21,1.12,1.12,0,0,0,.21.54,1.34,1.34,0,0,0,1,.68h0c1.41,0,2.8,0,4.16,0a.64.64,0,0,0,.08.14c.77,1.16,3.19,1.36,3.89.39a1.42,1.42,0,0,0,.21-.52h.78a2,2,0,0,0,.86.59,2.07,2.07,0,0,0,2-.21,1.47,1.47,0,0,0,.43-.85C15.21,8.73,13.93,8,13.75,7.84Zm-1-.36a1,1,0,0,0-.45.06,1.32,1.32,0,0,0-.7.61,1.9,1.9,0,0,0-.17,1.63H11a1.6,1.6,0,0,0-.11-.39,1.68,1.68,0,0,0-.75-.8,3.45,3.45,0,0,0-1-.24c-1-.2-1.11-.25-1.2-.33a1.76,1.76,0,0,1-.44-1.1,7.48,7.48,0,0,1,0-1c0-.29,0-.54,0-.74a3.71,3.71,0,0,1,2.17-.78A3.14,3.14,0,0,1,12.78,7.48ZM5,9.76l-2.32,0A.84.84,0,0,1,2,9.33C1.91,9.16,1.78,9,2.14,8c.8-2.24,1.67-2.87,2.25-3A1.53,1.53,0,0,1,5.1,5a.76.76,0,0,0,.16.38,1,1,0,0,0,1.45,0l.16,0a26.21,26.21,0,0,0-.23,3.39,6.35,6.35,0,0,0,0,.95Z" transform="translate(-1 -3.78)"/><path class="cls-2" d="M3.63,6.62a.59.59,0,0,0-.34,0,1.27,1.27,0,0,0,0,1.84.87.87,0,0,0,1-.24C4.67,7.73,4.18,6.77,3.63,6.62Z" transform="translate(-1 -3.78)"/></svg>